<svg width="77" height="23" fill="none" xmlns="http://www.w3.org/2000/svg"><path fill-rule="evenodd" clip-rule="evenodd" d="M29.67 10.212v-7.35c0-3.803 5.703-3.803 5.703 0-.431 3.547-5.703 3.547-5.703 7.35z" fill="#AB333E"/><path fill-rule="evenodd" clip-rule="evenodd" d="M35.39 2.862V13.64c0 3.803-5.702 3.803-5.702 0v-3.428c-.02-3.803 5.252-3.803 5.702-7.35z" fill="#F0555D"/><path fill-rule="evenodd" clip-rule="evenodd" d="M29.727 15.985c1.882 3.842-3.919 6.68-5.78 2.837l-2.98-6.108c1.627-3.448 3.371-6.542 5.213-4.04l3.547 7.31zM9.131 12.714l-2.98 6.108c-1.86 3.843-7.662 1.025-5.78-2.837l3.566-7.31c1.823-2.522 3.567.59 5.194 4.039z" fill="#AB333E"/><path fill-rule="evenodd" clip-rule="evenodd" d="M9.129 12.714c-1.627-3.448-3.37-6.561-5.193-4.04L6.09 4.242c1.313-2.837 4.88-2.798 6.095 0l2.861 5.892 2.861-5.892c1.216-2.798 4.782-2.837 6.095 0l2.156 4.434c-1.822-2.503-3.567.59-5.213 4.039l-2.979 6.108c-.607 1.242-1.763 1.852-2.94 1.852-1.175 0-2.331-.61-2.939-1.852l-2.96-6.108z" fill="#F0555D"/><path fill-rule="evenodd" clip-rule="evenodd" d="M45.052 16.635v2.246c0 5.261-7.898 5.261-7.898 0V16.36c1.02-3.409 5.448-2.187 7.898.276zm0-12.69v2.247c-2.45 2.463-6.898 3.685-7.898.256V3.946c0-5.261 7.898-5.261 7.898 0z" fill="#AB333E"/><path fill-rule="evenodd" clip-rule="evenodd" d="m45.052 6.192 4.939-4.965c3.704-3.724 9.289 1.911 5.585 5.615l-4.547 4.572 4.547 4.551c3.704 3.724-1.901 9.34-5.585 5.616l-4.939-4.965c-2.45-2.463-6.898-3.685-7.898-.256V6.447c1.02 3.429 5.448 2.207 7.898-.256z" fill="#F0555D"/><path fill-rule="evenodd" clip-rule="evenodd" d="M65.728 11.65c.137-1.418-.921-2.68-2.332-2.818-1.411-.137-2.665.927-2.803 2.345.255-2.817 2.724-4.886 5.527-4.63 2.802.256 4.86 2.739 4.605 5.556-.372 4.197-4.076 7.29-8.25 6.897-4.175-.375-7.251-4.099-6.86-8.296-.254 2.818 1.804 5.3 4.606 5.557 2.783.256 5.252-1.813 5.507-4.61z" fill="#F0555D"/><path fill-rule="evenodd" clip-rule="evenodd" d="M60.593 11.177c-.137 1.419.921 2.68 2.332 2.818 1.411.138 2.665-.926 2.802-2.345-.254 2.818-2.724 4.887-5.526 4.63-2.803-.256-4.86-2.738-4.605-5.556.372-4.197 4.076-7.29 8.25-6.896 4.174.374 7.251 4.098 6.86 8.295.254-2.818-1.804-5.3-4.606-5.557-2.783-.275-5.252 1.794-5.507 4.611z" fill="#AB333E"/><path d="M75.133 3.493c.608.394.902.926.902 1.635 0 .434-.118.828-.353 1.222-.235.374-.549.69-.94.906a2.352 2.352 0 0 1-1.255.335c-.431 0-.843-.118-1.235-.335a2.719 2.719 0 0 1-.94-.887 2.188 2.188 0 0 1-.353-1.182c0-.256.078-.473.235-.63a.796.796 0 0 1 .588-.237c.216 0 .392.06.53.178.097.078.176.177.195.256.02.079.04.236.059.433a.85.85 0 0 0 .176.453.957.957 0 0 0 .353.276c.137.06.294.099.431.099.235 0 .451-.08.627-.237a.793.793 0 0 0 .275-.63.954.954 0 0 0-.216-.591 1.008 1.008 0 0 0-.51-.355c-.215-.079-.372-.138-.43-.217-.06-.059-.099-.177-.099-.335 0-.236.079-.374.216-.453l.294-.118c.196-.099.274-.276.274-.512a.522.522 0 0 0-.137-.375.47.47 0 0 0-.372-.157c-.255 0-.431.157-.53.492a.705.705 0 0 1-.293.375.737.737 0 0 1-.412.137.96.96 0 0 1-.392-.098 1.124 1.124 0 0 1-.313-.296.847.847 0 0 1-.118-.433c0-.197.059-.414.177-.611.235-.414.607-.749 1.117-.965.235-.099.47-.138.705-.138.372 0 .706.098 1.039.275.333.178.588.434.784.73.196.295.294.61.294.945.058.316-.098.69-.373 1.045z" fill="#AB333E"/><path d="M75.133 3.493c.647.433.666 1.182.608 1.497-.06.434-.373.907-.824 1.143-.529.296-1.293.178-1.626-.118-.04-.04.098 0 .235 0 .235 0 .45-.079.627-.237a.792.792 0 0 0 .274-.63.953.953 0 0 0-.215-.591 1.007 1.007 0 0 0-.51-.355c-.215-.079-.372-.138-.43-.217-.06-.059-.099-.177-.099-.335 0-.236.079-.374.216-.453l.294-.118c.196-.098.274-.276.274-.512a.522.522 0 0 0-.137-.375.47.47 0 0 0-.372-.157c-.255 0-.431.157-.53.492a.705.705 0 0 1-.294.375.93.93 0 0 1-.43.138c-.06 0-.06-.375-.02-.532.02-.178.235-.828.725-1.084.216-.118.45-.217.686-.237.176-.02.568 0 .803.138.334.197.49.316.686.611.196.296.314.847.137 1.34-.02.06-.098.197-.078.217z" fill="#F0555D"/></svg>